%FSLAX44Y44*%
%MOMM*%
G71*
G01*
G75*
G04 Layer_Physical_Order=2*
G04 Layer_Color=16711680*
G04:AMPARAMS|DCode=10|XSize=2.1mm|YSize=1.5mm|CornerRadius=0.375mm|HoleSize=0mm|Usage=FLASHONLY|Rotation=180.000|XOffset=0mm|YOffset=0mm|HoleType=Round|Shape=RoundedRectangle|*
%AMROUNDEDRECTD10*
21,1,2.1000,0.7500,0,0,180.0*
21,1,1.3500,1.5000,0,0,180.0*
1,1,0.7500,-0.6750,0.3750*
1,1,0.7500,0.6750,0.3750*
1,1,0.7500,0.6750,-0.3750*
1,1,0.7500,-0.6750,-0.3750*
%
%ADD10ROUNDEDRECTD10*%
%ADD11R,1.5000X1.1000*%
%ADD12C,0.4000*%
%ADD13C,1.0000*%
%ADD14C,0.3000*%
%ADD15R,2.0000X1.7000*%
%ADD16O,2.0000X1.7000*%
%ADD17R,2.0000X2.0000*%
%ADD18C,2.0000*%
G04:AMPARAMS|DCode=19|XSize=1.7mm|YSize=2mm|CornerRadius=0mm|HoleSize=0mm|Usage=FLASHONLY|Rotation=120.000|XOffset=0mm|YOffset=0mm|HoleType=Round|Shape=Round|*
%AMOVALD19*
21,1,0.3000,1.7000,0.0000,0.0000,210.0*
1,1,1.7000,0.1299,0.0750*
1,1,1.7000,-0.1299,-0.0750*
%
%ADD19OVALD19*%

%ADD20O,1.7000X2.0000*%
%ADD21R,2.5000X1.5000*%
%ADD22O,2.5000X1.5000*%
G04:AMPARAMS|DCode=23|XSize=1.7mm|YSize=2mm|CornerRadius=0mm|HoleSize=0mm|Usage=FLASHONLY|Rotation=60.000|XOffset=0mm|YOffset=0mm|HoleType=Round|Shape=Round|*
%AMOVALD23*
21,1,0.3000,1.7000,0.0000,0.0000,150.0*
1,1,1.7000,0.1299,-0.0750*
1,1,1.7000,-0.1299,0.0750*
%
%ADD23OVALD23*%

%ADD24C,3.5000*%
%ADD25R,2.0000X2.0000*%
%ADD26R,1.1000X1.5000*%
G36*
X495670Y0D02*
X247836Y-428992D01*
X-247836D01*
X-495670Y0D01*
X-247836Y428992D01*
X247836D01*
X495670Y0D01*
D02*
G37*
%LPC*%
G36*
X316530Y-52000D02*
X290530D01*
Y-75000D01*
X316530D01*
Y-52000D01*
D02*
G37*
G36*
X-109300Y-52909D02*
X-119300D01*
X-122041Y-53270D01*
X-124595Y-54328D01*
X-126789Y-56011D01*
X-128472Y-58205D01*
X-129530Y-60759D01*
X-129891Y-63500D01*
X-129530Y-66241D01*
X-128472Y-68795D01*
X-126789Y-70989D01*
X-124595Y-72672D01*
X-122041Y-73730D01*
X-119300Y-74091D01*
X-109300D01*
X-106559Y-73730D01*
X-104005Y-72672D01*
X-101811Y-70989D01*
X-100128Y-68795D01*
X-99070Y-66241D01*
X-98709Y-63500D01*
X-99070Y-60759D01*
X-100128Y-58205D01*
X-101811Y-56011D01*
X-104005Y-54328D01*
X-106559Y-53270D01*
X-109300Y-52909D01*
D02*
G37*
G36*
X119300D02*
X109300D01*
X106559Y-53270D01*
X104005Y-54328D01*
X101811Y-56011D01*
X100128Y-58205D01*
X99070Y-60759D01*
X98709Y-63500D01*
X99070Y-66241D01*
X100128Y-68795D01*
X101811Y-70989D01*
X104005Y-72672D01*
X106559Y-73730D01*
X109300Y-74091D01*
X119300D01*
X122041Y-73730D01*
X124595Y-72672D01*
X126789Y-70989D01*
X128472Y-68795D01*
X129530Y-66241D01*
X129891Y-63500D01*
X129530Y-60759D01*
X128472Y-58205D01*
X126789Y-56011D01*
X124595Y-54328D01*
X122041Y-53270D01*
X119300Y-52909D01*
D02*
G37*
G36*
Y-103709D02*
X109300D01*
X106559Y-104070D01*
X104005Y-105128D01*
X101811Y-106811D01*
X100128Y-109005D01*
X99070Y-111559D01*
X98709Y-114300D01*
X99070Y-117041D01*
X100128Y-119595D01*
X101811Y-121789D01*
X104005Y-123472D01*
X106559Y-124530D01*
X109300Y-124891D01*
X119300D01*
X122041Y-124530D01*
X124595Y-123472D01*
X126789Y-121789D01*
X128472Y-119595D01*
X129530Y-117041D01*
X129891Y-114300D01*
X129530Y-111559D01*
X128472Y-109005D01*
X126789Y-106811D01*
X124595Y-105128D01*
X122041Y-104070D01*
X119300Y-103709D01*
D02*
G37*
G36*
X-109300Y-78309D02*
X-119300D01*
X-122041Y-78670D01*
X-124595Y-79728D01*
X-126789Y-81411D01*
X-128472Y-83605D01*
X-129530Y-86159D01*
X-129891Y-88900D01*
X-129530Y-91641D01*
X-128472Y-94195D01*
X-126789Y-96389D01*
X-124595Y-98072D01*
X-122041Y-99130D01*
X-119300Y-99491D01*
X-109300D01*
X-106559Y-99130D01*
X-104005Y-98072D01*
X-101811Y-96389D01*
X-100128Y-94195D01*
X-99070Y-91641D01*
X-98709Y-88900D01*
X-99070Y-86159D01*
X-100128Y-83605D01*
X-101811Y-81411D01*
X-104005Y-79728D01*
X-106559Y-78670D01*
X-109300Y-78309D01*
D02*
G37*
G36*
X119300D02*
X109300D01*
X106559Y-78670D01*
X104005Y-79728D01*
X101811Y-81411D01*
X100128Y-83605D01*
X99070Y-86159D01*
X98709Y-88900D01*
X99070Y-91641D01*
X100128Y-94195D01*
X101811Y-96389D01*
X104005Y-98072D01*
X106559Y-99130D01*
X109300Y-99491D01*
X119300D01*
X122041Y-99130D01*
X124595Y-98072D01*
X126789Y-96389D01*
X128472Y-94195D01*
X129530Y-91641D01*
X129891Y-88900D01*
X129530Y-86159D01*
X128472Y-83605D01*
X126789Y-81411D01*
X124595Y-79728D01*
X122041Y-78670D01*
X119300Y-78309D01*
D02*
G37*
G36*
X-222250Y-50388D02*
X-225644Y-50835D01*
X-228806Y-52144D01*
X-231522Y-54228D01*
X-233447Y-56738D01*
X-234650Y-56330D01*
Y-50500D01*
X-260650D01*
Y-58131D01*
X-267630D01*
Y-57700D01*
X-288630D01*
Y-58131D01*
X-290490D01*
Y-57700D01*
X-311490D01*
Y-74700D01*
X-290490D01*
Y-74269D01*
X-288630D01*
Y-74700D01*
X-267630D01*
Y-74269D01*
X-260650D01*
Y-76500D01*
X-234650D01*
Y-70670D01*
X-233447Y-70262D01*
X-231522Y-72772D01*
X-228806Y-74855D01*
X-227093Y-75565D01*
Y-76835D01*
X-228806Y-77544D01*
X-231522Y-79628D01*
X-233605Y-82344D01*
X-234915Y-85506D01*
X-235362Y-88900D01*
X-234915Y-92294D01*
X-233605Y-95456D01*
X-231522Y-98172D01*
X-228806Y-100255D01*
X-225644Y-101565D01*
X-222250Y-102012D01*
X-218856Y-101565D01*
X-215694Y-100255D01*
X-212978Y-98172D01*
X-210895Y-95456D01*
X-209585Y-92294D01*
X-209138Y-88900D01*
X-209585Y-85506D01*
X-210895Y-82344D01*
X-212978Y-79628D01*
X-215694Y-77544D01*
X-218856Y-76235D01*
X-215694Y-74855D01*
X-215694D01*
D01*
D01*
D01*
X-215694Y-74855D01*
X-212978Y-72772D01*
X-210895Y-70056D01*
X-209585Y-66894D01*
X-209138Y-63500D01*
X-209585Y-60106D01*
X-210895Y-56944D01*
X-212978Y-54228D01*
X-215694Y-52144D01*
X-218856Y-50835D01*
X-222250Y-50388D01*
D02*
G37*
G36*
X305030Y-1101D02*
X302030D01*
X299028Y-1496D01*
X296230Y-2655D01*
X293828Y-4498D01*
X291985Y-6900D01*
X290826Y-9698D01*
X290431Y-12700D01*
X290826Y-15702D01*
X291985Y-18500D01*
X293828Y-20902D01*
X296230Y-22745D01*
X299028Y-23904D01*
X302030Y-24299D01*
X305030D01*
X308032Y-23904D01*
X310830Y-22745D01*
X313232Y-20902D01*
X315075Y-18500D01*
X316234Y-15702D01*
X316629Y-12700D01*
X316234Y-9698D01*
X315075Y-6900D01*
X313232Y-4498D01*
X310830Y-2655D01*
X308032Y-1496D01*
X305030Y-1101D01*
D02*
G37*
G36*
X119300Y-2109D02*
X109300D01*
X106559Y-2470D01*
X104005Y-3528D01*
X101811Y-5211D01*
X100128Y-7405D01*
X99070Y-9959D01*
X98709Y-12700D01*
X99070Y-15441D01*
X100128Y-17995D01*
X101811Y-20189D01*
X104005Y-21872D01*
X106559Y-22930D01*
X109300Y-23291D01*
X119300D01*
X122041Y-22930D01*
X124595Y-21872D01*
X126789Y-20189D01*
X128472Y-17995D01*
X129530Y-15441D01*
X129891Y-12700D01*
X129530Y-9959D01*
X128472Y-7405D01*
X126789Y-5211D01*
X124595Y-3528D01*
X122041Y-2470D01*
X119300Y-2109D01*
D02*
G37*
G36*
X-185000Y20599D02*
X-189019Y20203D01*
X-192883Y19031D01*
X-196444Y17128D01*
X-199566Y14566D01*
X-202128Y11444D01*
X-204031Y7883D01*
X-205203Y4019D01*
X-205599Y0D01*
X-205203Y-4019D01*
X-204031Y-7883D01*
X-202128Y-11444D01*
X-199566Y-14566D01*
X-196444Y-17128D01*
X-192883Y-19031D01*
X-189019Y-20203D01*
X-185000Y-20599D01*
X-180981Y-20203D01*
X-177117Y-19031D01*
X-173556Y-17128D01*
X-170434Y-14566D01*
X-167872Y-11444D01*
X-165969Y-7883D01*
X-164797Y-4019D01*
X-164401Y0D01*
X-164797Y4019D01*
X-165969Y7883D01*
X-167872Y11444D01*
X-170434Y14566D01*
X-173556Y17128D01*
X-177117Y19031D01*
X-180981Y20203D01*
X-185000Y20599D01*
D02*
G37*
G36*
X305030Y-26501D02*
X302030D01*
X299028Y-26896D01*
X296230Y-28055D01*
X293828Y-29898D01*
X291985Y-32300D01*
X290826Y-35098D01*
X290431Y-38100D01*
X290826Y-41102D01*
X291985Y-43900D01*
X293828Y-46302D01*
X296230Y-48145D01*
X299028Y-49304D01*
X302030Y-49699D01*
X305030D01*
X308032Y-49304D01*
X310830Y-48145D01*
X313232Y-46302D01*
X315075Y-43900D01*
X316234Y-41102D01*
X316629Y-38100D01*
X316234Y-35098D01*
X315075Y-32300D01*
X313232Y-29898D01*
X310830Y-28055D01*
X308032Y-26896D01*
X305030Y-26501D01*
D02*
G37*
G36*
X119300Y-27509D02*
X109300D01*
X106559Y-27870D01*
X104005Y-28928D01*
X101811Y-30611D01*
X100128Y-32805D01*
X99070Y-35359D01*
X98709Y-38100D01*
X99070Y-40841D01*
X100128Y-43395D01*
X101811Y-45589D01*
X104005Y-47272D01*
X106559Y-48330D01*
X109300Y-48691D01*
X119300D01*
X122041Y-48330D01*
X124595Y-47272D01*
X126789Y-45589D01*
X128472Y-43395D01*
X129530Y-40841D01*
X129891Y-38100D01*
X129530Y-35359D01*
X128472Y-32805D01*
X126789Y-30611D01*
X124595Y-28928D01*
X122041Y-27870D01*
X119300Y-27509D01*
D02*
G37*
G36*
X-109300Y-27509D02*
X-119300D01*
X-122041Y-27870D01*
X-124595Y-28928D01*
X-126789Y-30611D01*
X-128472Y-32805D01*
X-129530Y-35359D01*
X-129891Y-38100D01*
X-129530Y-40841D01*
X-128472Y-43395D01*
X-126789Y-45589D01*
X-124595Y-47272D01*
X-122041Y-48330D01*
X-119300Y-48691D01*
X-109300D01*
X-106559Y-48330D01*
X-104005Y-47272D01*
X-101811Y-45589D01*
X-100128Y-43395D01*
X-99070Y-40841D01*
X-98709Y-38100D01*
X-99070Y-35359D01*
X-100128Y-32805D01*
X-101811Y-30611D01*
X-104005Y-28928D01*
X-106559Y-27870D01*
X-109300Y-27509D01*
D02*
G37*
G36*
Y-103709D02*
X-119300D01*
X-122041Y-104070D01*
X-124595Y-105128D01*
X-126789Y-106811D01*
X-128472Y-109005D01*
X-129530Y-111559D01*
X-129891Y-114300D01*
X-129530Y-117041D01*
X-128472Y-119595D01*
X-126789Y-121789D01*
X-124595Y-123472D01*
X-122041Y-124530D01*
X-119300Y-124891D01*
X-109300D01*
X-106559Y-124530D01*
X-104005Y-123472D01*
X-101811Y-121789D01*
X-100128Y-119595D01*
X-99070Y-117041D01*
X-98709Y-114300D01*
X-99070Y-111559D01*
X-100128Y-109005D01*
X-101811Y-106811D01*
X-104005Y-105128D01*
X-106559Y-104070D01*
X-109300Y-103709D01*
D02*
G37*
G36*
Y-230709D02*
X-119300D01*
X-122041Y-231070D01*
X-124595Y-232128D01*
X-126789Y-233811D01*
X-128472Y-236005D01*
X-129530Y-238559D01*
X-129891Y-241300D01*
X-129530Y-244041D01*
X-128472Y-246595D01*
X-126789Y-248789D01*
X-124595Y-250472D01*
X-122041Y-251530D01*
X-119300Y-251891D01*
X-109300D01*
X-106559Y-251530D01*
X-104005Y-250472D01*
X-101811Y-248789D01*
X-100128Y-246595D01*
X-99070Y-244041D01*
X-98709Y-241300D01*
X-99070Y-238559D01*
X-100128Y-236005D01*
X-101811Y-233811D01*
X-104005Y-232128D01*
X-106559Y-231070D01*
X-109300Y-230709D01*
D02*
G37*
G36*
X-2540Y-228188D02*
X-5934Y-228635D01*
X-9096Y-229944D01*
X-11812Y-232028D01*
X-13895Y-234744D01*
X-15205Y-237906D01*
X-15652Y-241300D01*
X-15205Y-244694D01*
X-14579Y-246206D01*
Y-261280D01*
X-15010D01*
Y-282280D01*
X-14579D01*
Y-287950D01*
X-15010D01*
Y-308950D01*
X1990D01*
Y-287950D01*
X1559D01*
Y-282280D01*
X1990D01*
Y-261280D01*
X1559D01*
Y-253673D01*
X4016Y-252656D01*
X6732Y-250572D01*
X8657Y-248062D01*
X9860Y-248470D01*
Y-254300D01*
X35860D01*
Y-246398D01*
X100047D01*
X100128Y-246595D01*
X101811Y-248789D01*
X104005Y-250472D01*
X106559Y-251530D01*
X109300Y-251891D01*
X119300D01*
X122041Y-251530D01*
X124595Y-250472D01*
X126789Y-248789D01*
X128472Y-246595D01*
X129530Y-244041D01*
X129891Y-241300D01*
X129530Y-238559D01*
X128472Y-236005D01*
X126789Y-233811D01*
X124595Y-232128D01*
X122041Y-231070D01*
X119300Y-230709D01*
X109300D01*
X106559Y-231070D01*
X104005Y-232128D01*
X101811Y-233811D01*
X100128Y-236005D01*
X100047Y-236202D01*
X35860D01*
Y-228300D01*
X9860D01*
Y-234130D01*
X8657Y-234538D01*
X6732Y-232028D01*
X4016Y-229944D01*
X854Y-228635D01*
X-2540Y-228188D01*
D02*
G37*
G36*
X-109300Y-205309D02*
X-119300D01*
X-122041Y-205670D01*
X-124595Y-206728D01*
X-126789Y-208411D01*
X-128472Y-210605D01*
X-129530Y-213159D01*
X-129891Y-215900D01*
X-129530Y-218641D01*
X-128472Y-221195D01*
X-126789Y-223389D01*
X-124595Y-225072D01*
X-122041Y-226130D01*
X-119300Y-226491D01*
X-109300D01*
X-106559Y-226130D01*
X-104005Y-225072D01*
X-101811Y-223389D01*
X-100128Y-221195D01*
X-99070Y-218641D01*
X-98709Y-215900D01*
X-99070Y-213159D01*
X-100128Y-210605D01*
X-101811Y-208411D01*
X-104005Y-206728D01*
X-106559Y-205670D01*
X-109300Y-205309D01*
D02*
G37*
G36*
X-38100Y-342501D02*
X-41102Y-342896D01*
X-43900Y-344055D01*
X-46302Y-345898D01*
X-48145Y-348300D01*
X-49304Y-351098D01*
X-49699Y-354100D01*
Y-357100D01*
X-49304Y-360102D01*
X-48145Y-362900D01*
X-46302Y-365302D01*
X-43900Y-367145D01*
X-41102Y-368304D01*
X-38100Y-368699D01*
X-35098Y-368304D01*
X-32300Y-367145D01*
X-29898Y-365302D01*
X-28055Y-362900D01*
X-26896Y-360102D01*
X-26501Y-357100D01*
Y-354100D01*
X-26896Y-351098D01*
X-28055Y-348300D01*
X-29898Y-345898D01*
X-32300Y-344055D01*
X-35098Y-342896D01*
X-38100Y-342501D01*
D02*
G37*
G36*
X-12700D02*
X-15702Y-342896D01*
X-18500Y-344055D01*
X-20902Y-345898D01*
X-22745Y-348300D01*
X-23904Y-351098D01*
X-24299Y-354100D01*
Y-357100D01*
X-23904Y-360102D01*
X-22745Y-362900D01*
X-20902Y-365302D01*
X-18500Y-367145D01*
X-15702Y-368304D01*
X-12700Y-368699D01*
X-9698Y-368304D01*
X-6900Y-367145D01*
X-4498Y-365302D01*
X-2655Y-362900D01*
X-1496Y-360102D01*
X-1101Y-357100D01*
Y-354100D01*
X-1496Y-351098D01*
X-2655Y-348300D01*
X-4498Y-345898D01*
X-6900Y-344055D01*
X-9698Y-342896D01*
X-12700Y-342501D01*
D02*
G37*
G36*
X12700D02*
X9698Y-342896D01*
X6900Y-344055D01*
X4498Y-345898D01*
X2655Y-348300D01*
X1496Y-351098D01*
X1101Y-354100D01*
Y-357100D01*
X1496Y-360102D01*
X2655Y-362900D01*
X4498Y-365302D01*
X6900Y-367145D01*
X9698Y-368304D01*
X12700Y-368699D01*
X15702Y-368304D01*
X18500Y-367145D01*
X20902Y-365302D01*
X22745Y-362900D01*
X23904Y-360102D01*
X24299Y-357100D01*
Y-354100D01*
X23904Y-351098D01*
X22745Y-348300D01*
X20902Y-345898D01*
X18500Y-344055D01*
X15702Y-342896D01*
X12700Y-342501D01*
D02*
G37*
G36*
X119300Y-205309D02*
X109300D01*
X106559Y-205670D01*
X104005Y-206728D01*
X101811Y-208411D01*
X100128Y-210605D01*
X99070Y-213159D01*
X98709Y-215900D01*
X99070Y-218641D01*
X100128Y-221195D01*
X101811Y-223389D01*
X104005Y-225072D01*
X106559Y-226130D01*
X109300Y-226491D01*
X119300D01*
X122041Y-226130D01*
X124595Y-225072D01*
X126789Y-223389D01*
X128472Y-221195D01*
X129530Y-218641D01*
X129891Y-215900D01*
X129530Y-213159D01*
X128472Y-210605D01*
X126789Y-208411D01*
X124595Y-206728D01*
X122041Y-205670D01*
X119300Y-205309D01*
D02*
G37*
G36*
X-309851Y-152751D02*
X-312853Y-153146D01*
X-315651Y-154305D01*
X-318249Y-155805D01*
X-320651Y-157648D01*
X-322494Y-160050D01*
X-323653Y-162848D01*
X-324048Y-165850D01*
X-323653Y-168852D01*
X-322494Y-171650D01*
X-320651Y-174052D01*
X-318249Y-175895D01*
X-315451Y-177054D01*
X-312449Y-177449D01*
X-309447Y-177054D01*
X-306649Y-175895D01*
X-304051Y-174395D01*
X-301649Y-172552D01*
X-299806Y-170150D01*
X-298647Y-167352D01*
X-298252Y-164350D01*
X-298647Y-161348D01*
X-299806Y-158550D01*
X-301649Y-156148D01*
X-304051Y-154305D01*
X-306849Y-153146D01*
X-309851Y-152751D01*
D02*
G37*
G36*
X-322551Y-130754D02*
X-325553Y-131149D01*
X-328350Y-132308D01*
X-330949Y-133808D01*
X-333351Y-135651D01*
X-335194Y-138053D01*
X-336353Y-140851D01*
X-336748Y-143853D01*
X-336353Y-146855D01*
X-335194Y-149653D01*
X-333351Y-152055D01*
X-330949Y-153898D01*
X-328151Y-155057D01*
X-325149Y-155452D01*
X-322147Y-155057D01*
X-319349Y-153898D01*
X-316751Y-152398D01*
X-314349Y-150555D01*
X-312506Y-148153D01*
X-311347Y-145355D01*
X-310952Y-142353D01*
X-311347Y-139351D01*
X-312506Y-136553D01*
X-314349Y-134151D01*
X-316751Y-132308D01*
X-319549Y-131149D01*
X-322551Y-130754D01*
D02*
G37*
G36*
X-109300Y-129109D02*
X-119300D01*
X-122041Y-129470D01*
X-124595Y-130528D01*
X-126789Y-132211D01*
X-128472Y-134405D01*
X-129530Y-136959D01*
X-129891Y-139700D01*
X-129530Y-142441D01*
X-128472Y-144995D01*
X-126789Y-147189D01*
X-124595Y-148872D01*
X-122041Y-149930D01*
X-119300Y-150291D01*
X-109300D01*
X-106559Y-149930D01*
X-104005Y-148872D01*
X-101811Y-147189D01*
X-100128Y-144995D01*
X-99070Y-142441D01*
X-98709Y-139700D01*
X-99070Y-136959D01*
X-100128Y-134405D01*
X-101811Y-132211D01*
X-104005Y-130528D01*
X-106559Y-129470D01*
X-109300Y-129109D01*
D02*
G37*
G36*
X285721Y-197152D02*
X282719Y-197547D01*
X279921Y-198706D01*
X277519Y-200549D01*
X275676Y-202952D01*
X274517Y-205749D01*
X274122Y-208751D01*
X274517Y-211753D01*
X275676Y-214551D01*
X277519Y-216953D01*
X279921Y-218796D01*
X282519Y-220296D01*
X285317Y-221455D01*
X288319Y-221850D01*
X291321Y-221455D01*
X294119Y-220296D01*
X296521Y-218453D01*
X298364Y-216051D01*
X299523Y-213253D01*
X299918Y-210251D01*
X299523Y-207249D01*
X298364Y-204452D01*
X296521Y-202049D01*
X294119Y-200206D01*
X291521Y-198706D01*
X288723Y-197547D01*
X285721Y-197152D01*
D02*
G37*
G36*
X0Y-164401D02*
X-4019Y-164797D01*
X-7883Y-165969D01*
X-11444Y-167872D01*
X-14566Y-170434D01*
X-17128Y-173556D01*
X-19031Y-177117D01*
X-20203Y-180981D01*
X-20599Y-185000D01*
X-20203Y-189019D01*
X-19031Y-192883D01*
X-17128Y-196444D01*
X-14566Y-199566D01*
X-11444Y-202128D01*
X-7883Y-204031D01*
X-4019Y-205203D01*
X0Y-205599D01*
X4019Y-205203D01*
X7883Y-204031D01*
X11444Y-202128D01*
X14566Y-199566D01*
X17128Y-196444D01*
X19031Y-192883D01*
X20203Y-189019D01*
X20599Y-185000D01*
X20203Y-180981D01*
X19031Y-177117D01*
X17128Y-173556D01*
X14566Y-170434D01*
X11444Y-167872D01*
X7883Y-165969D01*
X4019Y-164797D01*
X0Y-164401D01*
D02*
G37*
G36*
X-297151Y-174748D02*
X-300153Y-175143D01*
X-302950Y-176302D01*
X-305549Y-177802D01*
X-307951Y-179645D01*
X-309794Y-182047D01*
X-310953Y-184845D01*
X-311348Y-187847D01*
X-310953Y-190849D01*
X-309794Y-193647D01*
X-307951Y-196049D01*
X-305549Y-197892D01*
X-302751Y-199051D01*
X-299749Y-199446D01*
X-296747Y-199051D01*
X-293950Y-197892D01*
X-291351Y-196392D01*
X-288949Y-194549D01*
X-287106Y-192147D01*
X-285947Y-189349D01*
X-285552Y-186347D01*
X-285947Y-183345D01*
X-287106Y-180547D01*
X-288949Y-178145D01*
X-291351Y-176302D01*
X-294149Y-175143D01*
X-297151Y-174748D01*
D02*
G37*
G36*
X0Y20599D02*
X-4019Y20203D01*
X-7883Y19031D01*
X-11444Y17128D01*
X-14566Y14566D01*
X-17128Y11444D01*
X-19031Y7883D01*
X-20203Y4019D01*
X-20599Y0D01*
X-20203Y-4019D01*
X-19031Y-7883D01*
X-17128Y-11444D01*
X-14566Y-14566D01*
X-11444Y-17128D01*
X-7883Y-19031D01*
X-4019Y-20203D01*
X0Y-20599D01*
X4019Y-20203D01*
X7883Y-19031D01*
X11444Y-17128D01*
X14566Y-14566D01*
X17128Y-11444D01*
X19031Y-7883D01*
X20203Y-4019D01*
X20599Y0D01*
X20203Y4019D01*
X19031Y7883D01*
X17128Y11444D01*
X14566Y14566D01*
X11444Y17128D01*
X7883Y19031D01*
X4019Y20203D01*
X0Y20599D01*
D02*
G37*
G36*
X119300Y201091D02*
X109300D01*
X106559Y200730D01*
X104005Y199672D01*
X101811Y197989D01*
X100128Y195795D01*
X99070Y193241D01*
X98709Y190500D01*
X99070Y187759D01*
X100128Y185205D01*
X101811Y183011D01*
X104005Y181328D01*
X106559Y180270D01*
X109300Y179909D01*
X119300D01*
X122041Y180270D01*
X124595Y181328D01*
X126789Y183011D01*
X128472Y185205D01*
X129530Y187759D01*
X129891Y190500D01*
X129530Y193241D01*
X128472Y195795D01*
X126789Y197989D01*
X124595Y199672D01*
X122041Y200730D01*
X119300Y201091D01*
D02*
G37*
G36*
X195810Y221149D02*
X192810D01*
X189808Y220754D01*
X187010Y219595D01*
X184608Y217752D01*
X182765Y215350D01*
X181606Y212552D01*
X181211Y209550D01*
X181606Y206548D01*
X182765Y203750D01*
X184608Y201348D01*
X187010Y199505D01*
X189808Y198346D01*
X192810Y197951D01*
X195810D01*
X198812Y198346D01*
X201610Y199505D01*
X204012Y201348D01*
X205855Y203750D01*
X207014Y206548D01*
X207409Y209550D01*
X207014Y212552D01*
X205855Y215350D01*
X204012Y217752D01*
X201610Y219595D01*
X198812Y220754D01*
X195810Y221149D01*
D02*
G37*
G36*
X-290859Y223983D02*
X-293861Y223588D01*
X-296659Y222429D01*
X-299061Y220586D01*
X-300904Y218184D01*
X-302063Y215386D01*
X-302458Y212384D01*
X-302063Y209382D01*
X-300904Y206584D01*
X-299061Y204182D01*
X-296659Y202339D01*
X-294060Y200839D01*
X-291263Y199680D01*
X-288261Y199285D01*
X-285259Y199680D01*
X-282461Y200839D01*
X-280059Y202682D01*
X-278216Y205084D01*
X-277057Y207882D01*
X-276662Y210884D01*
X-277057Y213886D01*
X-278216Y216684D01*
X-280059Y219086D01*
X-282461Y220929D01*
X-285060Y222429D01*
X-287857Y223588D01*
X-290859Y223983D01*
D02*
G37*
G36*
X-109300Y201091D02*
X-119300D01*
X-122041Y200730D01*
X-124595Y199672D01*
X-126789Y197989D01*
X-128472Y195795D01*
X-129530Y193241D01*
X-129891Y190500D01*
X-129530Y187759D01*
X-128472Y185205D01*
X-126789Y183011D01*
X-124595Y181328D01*
X-122041Y180270D01*
X-119300Y179909D01*
X-109300D01*
X-106559Y180270D01*
X-104005Y181328D01*
X-101811Y183011D01*
X-100128Y185205D01*
X-99070Y187759D01*
X-98709Y190500D01*
X-99070Y193241D01*
X-100128Y195795D01*
X-101811Y197989D01*
X-104005Y199672D01*
X-106559Y200730D01*
X-109300Y201091D01*
D02*
G37*
G36*
X0Y205599D02*
X-4019Y205203D01*
X-7883Y204031D01*
X-11444Y202128D01*
X-14566Y199566D01*
X-17128Y196444D01*
X-19031Y192883D01*
X-20203Y189019D01*
X-20599Y185000D01*
X-20203Y180981D01*
X-19031Y177117D01*
X-17128Y173556D01*
X-14566Y170434D01*
X-11444Y167872D01*
X-7883Y165969D01*
X-4019Y164797D01*
X0Y164401D01*
X4019Y164797D01*
X7883Y165969D01*
X11444Y167872D01*
X14566Y170434D01*
X17128Y173556D01*
X19031Y177117D01*
X20203Y180981D01*
X20599Y185000D01*
X20203Y189019D01*
X19031Y192883D01*
X17128Y196444D01*
X14566Y199566D01*
X11444Y202128D01*
X7883Y204031D01*
X4019Y205203D01*
X0Y205599D01*
D02*
G37*
G36*
X195810Y195749D02*
X192810D01*
X189808Y195354D01*
X187010Y194195D01*
X184608Y192352D01*
X182765Y189950D01*
X181606Y187152D01*
X181211Y184150D01*
X181606Y181148D01*
X182765Y178350D01*
X184608Y175948D01*
X187010Y174105D01*
X189808Y172946D01*
X192810Y172551D01*
X195810D01*
X198812Y172946D01*
X201610Y174105D01*
X204012Y175948D01*
X205855Y178350D01*
X207014Y181148D01*
X207409Y184150D01*
X207014Y187152D01*
X205855Y189950D01*
X204012Y192352D01*
X201610Y194195D01*
X198812Y195354D01*
X195810Y195749D01*
D02*
G37*
G36*
X-303559Y201986D02*
X-306561Y201591D01*
X-309359Y200432D01*
X-311761Y198589D01*
X-313604Y196187D01*
X-314763Y193389D01*
X-315158Y190387D01*
X-314763Y187385D01*
X-313604Y184587D01*
X-311761Y182185D01*
X-309359Y180342D01*
X-306761Y178842D01*
X-303963Y177683D01*
X-300961Y177288D01*
X-297959Y177683D01*
X-295161Y178842D01*
X-292759Y180685D01*
X-290916Y183087D01*
X-290314Y184539D01*
X-238739D01*
X-228111Y173911D01*
X-228597Y172738D01*
X-303653D01*
X-305459Y175092D01*
X-307861Y176935D01*
X-310459Y178435D01*
X-313257Y179594D01*
X-316259Y179989D01*
X-319261Y179594D01*
X-322059Y178435D01*
X-324461Y176592D01*
X-326304Y174190D01*
X-327463Y171392D01*
X-327858Y168390D01*
X-327463Y165388D01*
X-326304Y162590D01*
X-324461Y160188D01*
X-322059Y158345D01*
X-319461Y156845D01*
X-316663Y155686D01*
X-313661Y155291D01*
X-310659Y155686D01*
X-307861Y156845D01*
X-305459Y158688D01*
X-303616Y161090D01*
X-303014Y162542D01*
X-229442D01*
X-159418Y92518D01*
Y-166990D01*
X-159418Y-166990D01*
X-159418D01*
X-159030Y-168941D01*
X-157925Y-170595D01*
X-134415Y-194105D01*
X-132761Y-195210D01*
X-130810Y-195598D01*
X-128553D01*
X-128472Y-195795D01*
X-126789Y-197989D01*
X-124595Y-199672D01*
X-122041Y-200730D01*
X-119300Y-201091D01*
X-109300D01*
X-106559Y-200730D01*
X-104005Y-199672D01*
X-101811Y-197989D01*
X-100128Y-195795D01*
X-99070Y-193241D01*
X-98709Y-190500D01*
X-99070Y-187759D01*
X-100128Y-185205D01*
X-101811Y-183011D01*
X-104005Y-181328D01*
X-106559Y-180270D01*
X-109300Y-179909D01*
X-119300D01*
X-122041Y-180270D01*
X-124595Y-181328D01*
X-126789Y-183011D01*
X-128069Y-184681D01*
X-129337Y-184764D01*
X-149222Y-164878D01*
Y-153017D01*
X-148049Y-152531D01*
X-131875Y-168705D01*
X-131875D01*
X-131875Y-168705D01*
X-131875Y-168705D01*
Y-168705D01*
X-130221Y-169810D01*
X-128579Y-170137D01*
X-128472Y-170395D01*
X-126789Y-172589D01*
X-124595Y-174272D01*
X-122041Y-175330D01*
X-119300Y-175691D01*
X-109300D01*
X-106559Y-175330D01*
X-104005Y-174272D01*
X-101811Y-172589D01*
X-100128Y-170395D01*
X-99070Y-167841D01*
X-98709Y-165100D01*
X-99070Y-162359D01*
X-100128Y-159805D01*
X-101811Y-157611D01*
X-104005Y-155928D01*
X-106559Y-154870D01*
X-109300Y-154509D01*
X-119300D01*
X-122041Y-154870D01*
X-124595Y-155928D01*
X-126789Y-157611D01*
X-126967Y-157843D01*
X-128234Y-157926D01*
X-142222Y-143938D01*
Y-1267D01*
X-141049Y-781D01*
X-138425Y-3405D01*
X-136771Y-4510D01*
X-134820Y-4898D01*
X-127984D01*
X-127422Y-6037D01*
X-128472Y-7405D01*
X-129530Y-9959D01*
X-129891Y-12700D01*
X-129530Y-15441D01*
X-128472Y-17995D01*
X-126789Y-20189D01*
X-124595Y-21872D01*
X-122041Y-22930D01*
X-119300Y-23291D01*
X-109300D01*
X-106559Y-22930D01*
X-104005Y-21872D01*
X-101811Y-20189D01*
X-100128Y-17995D01*
X-99070Y-15441D01*
X-98709Y-12700D01*
X-99070Y-9959D01*
X-100128Y-7405D01*
X-101811Y-5211D01*
X-101705Y-4898D01*
X-92482D01*
X-85108Y-12272D01*
Y-45720D01*
X-85108Y-45720D01*
X-85108D01*
X-84720Y-47671D01*
X-83615Y-49325D01*
X-74725Y-58215D01*
X-73071Y-59320D01*
X-71120Y-59708D01*
X35988D01*
X42512Y-66232D01*
Y-137780D01*
X42512Y-137780D01*
X42512D01*
X42900Y-139731D01*
X44005Y-141385D01*
X84025Y-181405D01*
X85679Y-182510D01*
X87630Y-182898D01*
X100463D01*
X101024Y-184037D01*
X100128Y-185205D01*
X99070Y-187759D01*
X98709Y-190500D01*
X99070Y-193241D01*
X100128Y-195795D01*
X101811Y-197989D01*
X104005Y-199672D01*
X106559Y-200730D01*
X109300Y-201091D01*
X119300D01*
X122041Y-200730D01*
X124595Y-199672D01*
X126789Y-197989D01*
X128472Y-195795D01*
X129530Y-193241D01*
X129891Y-190500D01*
X129530Y-187759D01*
X128472Y-185205D01*
X126789Y-183011D01*
X126827Y-182898D01*
X286366D01*
X287204Y-183853D01*
X286822Y-186754D01*
X287217Y-189756D01*
X288376Y-192554D01*
X290219Y-194956D01*
X292621Y-196799D01*
X295219Y-198299D01*
X298017Y-199458D01*
X301019Y-199853D01*
X304021Y-199458D01*
X306819Y-198299D01*
X309221Y-196456D01*
X311064Y-194054D01*
X312223Y-191256D01*
X312618Y-188254D01*
X312223Y-185252D01*
X311064Y-182454D01*
X309221Y-180052D01*
X306819Y-178209D01*
X304221Y-176709D01*
X301423Y-175550D01*
X298421Y-175155D01*
X295419Y-175550D01*
X295105Y-175680D01*
X293621Y-174195D01*
X291967Y-173090D01*
X290016Y-172702D01*
X128138D01*
X127576Y-171563D01*
X128472Y-170395D01*
X129530Y-167841D01*
X129891Y-165100D01*
X129530Y-162359D01*
X128472Y-159805D01*
X126789Y-157611D01*
X126827Y-157498D01*
X297201D01*
X300368Y-160665D01*
X299917Y-161755D01*
X299522Y-164757D01*
X299917Y-167759D01*
X301076Y-170557D01*
X302919Y-172959D01*
X305321Y-174802D01*
X307920Y-176302D01*
X310717Y-177461D01*
X313719Y-177856D01*
X316721Y-177461D01*
X319519Y-176302D01*
X321921Y-174459D01*
X323764Y-172057D01*
X324923Y-169259D01*
X325318Y-166257D01*
X324923Y-163255D01*
X323764Y-160457D01*
X321921Y-158055D01*
X319519Y-156212D01*
X316921Y-154712D01*
X314123Y-153553D01*
X311121Y-153158D01*
X308119Y-153553D01*
X307805Y-153683D01*
X302918Y-148795D01*
X301264Y-147690D01*
X299313Y-147302D01*
X128137D01*
X127576Y-146163D01*
X128472Y-144995D01*
X129530Y-142441D01*
X129891Y-139700D01*
X129530Y-136959D01*
X128472Y-134405D01*
X126789Y-132211D01*
X124595Y-130528D01*
X122041Y-129470D01*
X119300Y-129109D01*
X109300D01*
X106559Y-129470D01*
X104005Y-130528D01*
X101811Y-132211D01*
X100128Y-134405D01*
X99070Y-136959D01*
X98709Y-139700D01*
X99070Y-142441D01*
X100128Y-144995D01*
X101024Y-146163D01*
X100463Y-147302D01*
X77042D01*
X59708Y-129968D01*
Y-58420D01*
X59320Y-56469D01*
X58215Y-54815D01*
X46785Y-43385D01*
X45131Y-42280D01*
X43180Y-41892D01*
X-62658D01*
X-67912Y-36638D01*
Y-4460D01*
X-68300Y-2509D01*
X-69405Y-855D01*
X-86565Y16305D01*
X-88219Y17410D01*
X-90170Y17798D01*
X-100047D01*
X-100128Y17995D01*
X-101811Y20189D01*
X-104005Y21872D01*
X-106559Y22930D01*
X-109300Y23291D01*
X-119300D01*
X-122041Y22930D01*
X-124595Y21872D01*
X-126789Y20189D01*
X-128472Y17995D01*
X-129530Y15441D01*
X-129891Y12700D01*
X-129530Y9959D01*
X-128472Y7405D01*
X-127729Y6437D01*
X-128291Y5298D01*
X-132708D01*
X-133332Y5922D01*
Y28368D01*
X-129337Y32364D01*
X-128069Y32280D01*
X-126789Y30611D01*
X-124595Y28928D01*
X-122041Y27870D01*
X-119300Y27509D01*
X-109300D01*
X-106559Y27870D01*
X-104005Y28928D01*
X-101811Y30611D01*
X-100128Y32805D01*
X-99070Y35359D01*
X-98709Y38100D01*
X-99070Y40841D01*
X-100128Y43395D01*
X-101811Y45589D01*
X-104005Y47272D01*
X-106559Y48330D01*
X-109300Y48691D01*
X-119300D01*
X-122041Y48330D01*
X-124595Y47272D01*
X-126789Y45589D01*
X-128472Y43395D01*
X-128553Y43198D01*
X-130810D01*
X-132761Y42810D01*
X-134415Y41705D01*
X-141049Y35071D01*
X-142222Y35557D01*
Y100330D01*
X-142610Y102281D01*
X-143715Y103935D01*
X-233022Y193242D01*
X-234676Y194347D01*
X-236627Y194735D01*
X-290953D01*
X-292759Y197089D01*
X-295161Y198932D01*
X-297759Y200432D01*
X-300557Y201591D01*
X-303559Y201986D01*
D02*
G37*
G36*
X207310Y297250D02*
X181310D01*
Y274250D01*
X207310D01*
Y297250D01*
D02*
G37*
G36*
X-12700Y367429D02*
X-15702Y367034D01*
X-18500Y365875D01*
X-20902Y364032D01*
X-22745Y361630D01*
X-23904Y358832D01*
X-24299Y355830D01*
Y352830D01*
X-23904Y349828D01*
X-22745Y347030D01*
X-20902Y344628D01*
X-18500Y342785D01*
X-15702Y341626D01*
X-12700Y341231D01*
X-9698Y341626D01*
X-6900Y342785D01*
X-4498Y344628D01*
X-2655Y347030D01*
X-1496Y349828D01*
X-1101Y352830D01*
Y355830D01*
X-1496Y358832D01*
X-2655Y361630D01*
X-4498Y364032D01*
X-6900Y365875D01*
X-9698Y367034D01*
X-12700Y367429D01*
D02*
G37*
G36*
X38100D02*
X35098Y367034D01*
X32300Y365875D01*
X29898Y364032D01*
X28055Y361630D01*
X26896Y358832D01*
X26501Y355830D01*
Y352830D01*
X26896Y349828D01*
X28055Y347030D01*
X29898Y344628D01*
X32300Y342785D01*
X35098Y341626D01*
X38100Y341231D01*
X41102Y341626D01*
X43900Y342785D01*
X46302Y344628D01*
X48145Y347030D01*
X49304Y349828D01*
X49699Y352830D01*
Y355830D01*
X49304Y358832D01*
X48145Y361630D01*
X46302Y364032D01*
X43900Y365875D01*
X41102Y367034D01*
X38100Y367429D01*
D02*
G37*
G36*
X195810Y271949D02*
X192810D01*
X189808Y271554D01*
X187010Y270395D01*
X184608Y268552D01*
X182765Y266150D01*
X182474Y265448D01*
X170180D01*
X168229Y265060D01*
X166575Y263955D01*
X149018Y246398D01*
X128553D01*
X128472Y246595D01*
X126789Y248789D01*
X124595Y250472D01*
X122041Y251530D01*
X119300Y251891D01*
X109300D01*
X106559Y251530D01*
X104005Y250472D01*
X101811Y248789D01*
X100128Y246595D01*
X99070Y244041D01*
X98709Y241300D01*
X99070Y238559D01*
X100128Y236005D01*
X101811Y233811D01*
X104005Y232128D01*
X106559Y231070D01*
X109300Y230709D01*
X119300D01*
X122041Y231070D01*
X124595Y232128D01*
X126789Y233811D01*
X128472Y236005D01*
X128553Y236202D01*
X151130D01*
X153081Y236590D01*
X154735Y237695D01*
X172292Y255252D01*
X182474D01*
X182765Y254550D01*
X184608Y252148D01*
X187010Y250305D01*
X189808Y249146D01*
X192810Y248751D01*
X195810D01*
X198812Y249146D01*
X201610Y250305D01*
X204012Y252148D01*
X205855Y254550D01*
X206146Y255252D01*
X228260D01*
Y249150D01*
X249260D01*
Y266150D01*
X228260D01*
Y265448D01*
X206146D01*
X205855Y266150D01*
X204012Y268552D01*
X201610Y270395D01*
X198812Y271554D01*
X195810Y271949D01*
D02*
G37*
G36*
X326390Y205758D02*
X312420D01*
X310469Y205370D01*
X308815Y204265D01*
X304335Y199784D01*
X304021Y199914D01*
X301019Y200309D01*
X298017Y199914D01*
X295219Y198755D01*
X292621Y197255D01*
X290219Y195412D01*
X288376Y193010D01*
X287217Y190212D01*
X286822Y187210D01*
X287217Y184208D01*
X288376Y181410D01*
X290219Y179008D01*
X292621Y177165D01*
X295419Y176006D01*
X298421Y175611D01*
X301423Y176006D01*
X304221Y177165D01*
X306819Y178665D01*
X309221Y180508D01*
X311064Y182910D01*
X312223Y185708D01*
X312618Y188710D01*
X312223Y191712D01*
X311772Y192802D01*
X314532Y195562D01*
X324278D01*
X349232Y170608D01*
Y134192D01*
X324278Y109238D01*
X283210D01*
X281583Y108914D01*
X281259Y108850D01*
X279605Y107745D01*
X227758Y55898D01*
X128137D01*
X127576Y57037D01*
X128472Y58205D01*
X129530Y60759D01*
X129891Y63500D01*
X129530Y66241D01*
X128472Y68795D01*
X126789Y70989D01*
X126895Y71302D01*
X222857D01*
X224808Y71690D01*
X226462Y72795D01*
X226462Y72795D01*
X226462Y72795D01*
X307805Y154139D01*
X308119Y154009D01*
X311121Y153614D01*
X314123Y154009D01*
X316921Y155168D01*
X319519Y156668D01*
X321921Y158511D01*
X323764Y160913D01*
X324923Y163711D01*
X325318Y166713D01*
X324923Y169715D01*
X323764Y172513D01*
X321921Y174915D01*
X319519Y176758D01*
X316721Y177917D01*
X313719Y178312D01*
X310717Y177917D01*
X307920Y176758D01*
X305321Y175258D01*
X302919Y173415D01*
X301076Y171012D01*
X299917Y168215D01*
X299522Y165213D01*
X299917Y162211D01*
X300368Y161121D01*
X220746Y81498D01*
X128291D01*
X127729Y82637D01*
X128472Y83605D01*
X129530Y86159D01*
X129891Y88900D01*
X129530Y91641D01*
X128472Y94195D01*
X126789Y96389D01*
X124595Y98072D01*
X122041Y99130D01*
X119300Y99491D01*
X109300D01*
X106559Y99130D01*
X104005Y98072D01*
X101811Y96389D01*
X100128Y94195D01*
X99070Y91641D01*
X98709Y88900D01*
X99070Y86159D01*
X100128Y83605D01*
X100871Y82637D01*
X100309Y81498D01*
X88272D01*
X77265Y92505D01*
X75611Y93610D01*
X73660Y93998D01*
X-100047D01*
X-100128Y94195D01*
X-101811Y96389D01*
X-104005Y98072D01*
X-106559Y99130D01*
X-109300Y99491D01*
X-119300D01*
X-122041Y99130D01*
X-124595Y98072D01*
X-126789Y96389D01*
X-128472Y94195D01*
X-129530Y91641D01*
X-129891Y88900D01*
X-129530Y86159D01*
X-128472Y83605D01*
X-126789Y81411D01*
X-124595Y79728D01*
X-122041Y78670D01*
X-119300Y78309D01*
X-109300D01*
X-106559Y78670D01*
X-104005Y79728D01*
X-101811Y81411D01*
X-100128Y83605D01*
X-100047Y83802D01*
X71548D01*
X82555Y72795D01*
X84209Y71690D01*
X84533Y71626D01*
X86160Y71302D01*
X100616D01*
X101178Y70163D01*
X100128Y68795D01*
X99070Y66241D01*
X98709Y63500D01*
X99070Y60759D01*
X100128Y58205D01*
X101024Y57037D01*
X100463Y55898D01*
X75772D01*
X64565Y67105D01*
X62911Y68210D01*
X60960Y68598D01*
X-100047D01*
X-100128Y68795D01*
X-101811Y70989D01*
X-104005Y72672D01*
X-106559Y73730D01*
X-109300Y74091D01*
X-119300D01*
X-122041Y73730D01*
X-124595Y72672D01*
X-126789Y70989D01*
X-128472Y68795D01*
X-129530Y66241D01*
X-129891Y63500D01*
X-129530Y60759D01*
X-128472Y58205D01*
X-126789Y56011D01*
X-124595Y54328D01*
X-122041Y53270D01*
X-119300Y52909D01*
X-109300D01*
X-106559Y53270D01*
X-104005Y54328D01*
X-101811Y56011D01*
X-100128Y58205D01*
X-100047Y58402D01*
X58848D01*
X70055Y47195D01*
X71709Y46090D01*
X73660Y45702D01*
X100463D01*
X101024Y44563D01*
X100128Y43395D01*
X99070Y40841D01*
X98709Y38100D01*
X99070Y35359D01*
X100128Y32805D01*
X101811Y30611D01*
X104005Y28928D01*
X106559Y27870D01*
X109300Y27509D01*
X119300D01*
X122041Y27870D01*
X124595Y28928D01*
X126789Y30611D01*
X128472Y32805D01*
X129530Y35359D01*
X129891Y38100D01*
X129530Y40841D01*
X128472Y43395D01*
X126789Y45589D01*
X126827Y45702D01*
X229870D01*
X231821Y46090D01*
X233475Y47195D01*
X233475Y47195D01*
X233475Y47195D01*
X285322Y99042D01*
X326390D01*
X328341Y99430D01*
X329995Y100535D01*
X329995Y100535D01*
X329995Y100535D01*
X357935Y128475D01*
X359040Y130129D01*
X359428Y132080D01*
X359428Y132080D01*
X359428Y132080D01*
Y132080D01*
Y172720D01*
X359040Y174671D01*
X357935Y176325D01*
X329995Y204265D01*
X328341Y205370D01*
X326390Y205758D01*
D02*
G37*
G36*
X-109300Y226491D02*
X-119300D01*
X-122041Y226130D01*
X-124595Y225072D01*
X-126789Y223389D01*
X-128472Y221195D01*
X-129530Y218641D01*
X-129891Y215900D01*
X-129530Y213159D01*
X-128472Y210605D01*
X-126789Y208411D01*
X-124595Y206728D01*
X-122041Y205670D01*
X-119300Y205309D01*
X-109300D01*
X-106559Y205670D01*
X-104005Y206728D01*
X-101811Y208411D01*
X-100128Y210605D01*
X-99070Y213159D01*
X-98709Y215900D01*
X-99070Y218641D01*
X-100128Y221195D01*
X-101811Y223389D01*
X-104005Y225072D01*
X-106559Y226130D01*
X-109300Y226491D01*
D02*
G37*
G36*
X119300D02*
X109300D01*
X106559Y226130D01*
X104005Y225072D01*
X101811Y223389D01*
X100128Y221195D01*
X99070Y218641D01*
X98709Y215900D01*
X99070Y213159D01*
X100128Y210605D01*
X101811Y208411D01*
X104005Y206728D01*
X106559Y205670D01*
X109300Y205309D01*
X119300D01*
X122041Y205670D01*
X124595Y206728D01*
X126789Y208411D01*
X128472Y210605D01*
X129530Y213159D01*
X129891Y215900D01*
X129530Y218641D01*
X128472Y221195D01*
X126789Y223389D01*
X124595Y225072D01*
X122041Y226130D01*
X119300Y226491D01*
D02*
G37*
G36*
X195810Y119549D02*
X192810D01*
X189808Y119154D01*
X187010Y117995D01*
X184608Y116152D01*
X182765Y113750D01*
X181606Y110952D01*
X181211Y107950D01*
X181606Y104948D01*
X182765Y102150D01*
X184608Y99748D01*
X187010Y97905D01*
X189808Y96746D01*
X192810Y96351D01*
X195810D01*
X198812Y96746D01*
X201610Y97905D01*
X204012Y99748D01*
X205855Y102150D01*
X207014Y104948D01*
X207409Y107950D01*
X207014Y110952D01*
X205855Y113750D01*
X204012Y116152D01*
X201610Y117995D01*
X198812Y119154D01*
X195810Y119549D01*
D02*
G37*
G36*
X119300Y124891D02*
X109300D01*
X106559Y124530D01*
X104005Y123472D01*
X101811Y121789D01*
X100128Y119595D01*
X99070Y117041D01*
X98709Y114300D01*
X99070Y111559D01*
X100128Y109005D01*
X101811Y106811D01*
X104005Y105128D01*
X106559Y104070D01*
X109300Y103709D01*
X119300D01*
X122041Y104070D01*
X124595Y105128D01*
X126789Y106811D01*
X128472Y109005D01*
X129530Y111559D01*
X129891Y114300D01*
X129530Y117041D01*
X128472Y119595D01*
X126789Y121789D01*
X124595Y123472D01*
X122041Y124530D01*
X119300Y124891D01*
D02*
G37*
G36*
X-109300Y124891D02*
X-119300D01*
X-122041Y124530D01*
X-124595Y123472D01*
X-126789Y121789D01*
X-128472Y119595D01*
X-129530Y117041D01*
X-129891Y114300D01*
X-129530Y111559D01*
X-128472Y109005D01*
X-126789Y106811D01*
X-124595Y105128D01*
X-122041Y104070D01*
X-119300Y103709D01*
X-109300D01*
X-106559Y104070D01*
X-104005Y105128D01*
X-101811Y106811D01*
X-100128Y109005D01*
X-99070Y111559D01*
X-98709Y114300D01*
X-99070Y117041D01*
X-100128Y119595D01*
X-101811Y121789D01*
X-104005Y123472D01*
X-106559Y124530D01*
X-109300Y124891D01*
D02*
G37*
G36*
X305030Y49699D02*
X302030D01*
X299028Y49304D01*
X296230Y48145D01*
X293828Y46302D01*
X291985Y43900D01*
X290826Y41102D01*
X290431Y38100D01*
X290826Y35098D01*
X291985Y32300D01*
X293828Y29898D01*
X296230Y28055D01*
X299028Y26896D01*
X302030Y26501D01*
X305030D01*
X308032Y26896D01*
X310830Y28055D01*
X313232Y29898D01*
X315075Y32300D01*
X316234Y35098D01*
X316629Y38100D01*
X316234Y41102D01*
X315075Y43900D01*
X313232Y46302D01*
X310830Y48145D01*
X308032Y49304D01*
X305030Y49699D01*
D02*
G37*
G36*
X185000Y20599D02*
X180981Y20203D01*
X177117Y19031D01*
X173556Y17128D01*
X170434Y14566D01*
X167872Y11444D01*
X165969Y7883D01*
X164797Y4019D01*
X164401Y0D01*
X164797Y-4019D01*
X165969Y-7883D01*
X167872Y-11444D01*
X170434Y-14566D01*
X173556Y-17128D01*
X177117Y-19031D01*
X180981Y-20203D01*
X185000Y-20599D01*
X189019Y-20203D01*
X192883Y-19031D01*
X196444Y-17128D01*
X199566Y-14566D01*
X202128Y-11444D01*
X204031Y-7883D01*
X205203Y-4019D01*
X205599Y0D01*
X205203Y4019D01*
X204031Y7883D01*
X202128Y11444D01*
X199566Y14566D01*
X196444Y17128D01*
X192883Y19031D01*
X189019Y20203D01*
X185000Y20599D01*
D02*
G37*
G36*
X305030Y24299D02*
X302030D01*
X299028Y23904D01*
X296230Y22745D01*
X293828Y20902D01*
X291985Y18500D01*
X290826Y15702D01*
X290431Y12700D01*
X290826Y9698D01*
X291985Y6900D01*
X293828Y4498D01*
X296230Y2655D01*
X299028Y1496D01*
X302030Y1101D01*
X305030D01*
X308032Y1496D01*
X310830Y2655D01*
X313232Y4498D01*
X315075Y6900D01*
X316234Y9698D01*
X316629Y12700D01*
X316234Y15702D01*
X315075Y18500D01*
X313232Y20902D01*
X310830Y22745D01*
X308032Y23904D01*
X305030Y24299D01*
D02*
G37*
G36*
X119300Y23291D02*
X109300D01*
X106559Y22930D01*
X104005Y21872D01*
X101811Y20189D01*
X100128Y17995D01*
X99070Y15441D01*
X98709Y12700D01*
X99070Y9959D01*
X100128Y7405D01*
X101811Y5211D01*
X104005Y3528D01*
X106559Y2470D01*
X109300Y2109D01*
X119300D01*
X122041Y2470D01*
X124595Y3528D01*
X126789Y5211D01*
X128472Y7405D01*
X129530Y9959D01*
X129891Y12700D01*
X129530Y15441D01*
X128472Y17995D01*
X126789Y20189D01*
X124595Y21872D01*
X122041Y22930D01*
X119300Y23291D01*
D02*
G37*
G36*
X195810Y170349D02*
X192810D01*
X189808Y169954D01*
X187010Y168795D01*
X184608Y166952D01*
X182765Y164550D01*
X181606Y161752D01*
X181211Y158750D01*
X181606Y155748D01*
X182765Y152950D01*
X184608Y150548D01*
X187010Y148705D01*
X189808Y147546D01*
X192810Y147151D01*
X195810D01*
X198812Y147546D01*
X201610Y148705D01*
X204012Y150548D01*
X205855Y152950D01*
X207014Y155748D01*
X207409Y158750D01*
X207014Y161752D01*
X205855Y164550D01*
X204012Y166952D01*
X201610Y168795D01*
X198812Y169954D01*
X195810Y170349D01*
D02*
G37*
G36*
X119300Y175691D02*
X109300D01*
X106559Y175330D01*
X104005Y174272D01*
X101811Y172589D01*
X100128Y170395D01*
X99070Y167841D01*
X98709Y165100D01*
X99070Y162359D01*
X100128Y159805D01*
X101811Y157611D01*
X104005Y155928D01*
X106559Y154870D01*
X109300Y154509D01*
X119300D01*
X122041Y154870D01*
X124595Y155928D01*
X126789Y157611D01*
X128472Y159805D01*
X129530Y162359D01*
X129891Y165100D01*
X129530Y167841D01*
X128472Y170395D01*
X126789Y172589D01*
X124595Y174272D01*
X122041Y175330D01*
X119300Y175691D01*
D02*
G37*
G36*
X-109300Y175691D02*
X-119300D01*
X-122041Y175330D01*
X-124595Y174272D01*
X-126789Y172589D01*
X-128472Y170395D01*
X-129530Y167841D01*
X-129891Y165100D01*
X-129530Y162359D01*
X-128472Y159805D01*
X-126789Y157611D01*
X-124595Y155928D01*
X-122041Y154870D01*
X-119300Y154509D01*
X-109300D01*
X-106559Y154870D01*
X-104005Y155928D01*
X-101811Y157611D01*
X-100128Y159805D01*
X-99070Y162359D01*
X-98709Y165100D01*
X-99070Y167841D01*
X-100128Y170395D01*
X-101811Y172589D01*
X-104005Y174272D01*
X-106559Y175330D01*
X-109300Y175691D01*
D02*
G37*
G36*
X12700Y367429D02*
X9698Y367034D01*
X6900Y365875D01*
X4498Y364032D01*
X2655Y361630D01*
X1496Y358832D01*
X1101Y355830D01*
Y352830D01*
X1496Y349828D01*
X2655Y347030D01*
X4498Y344628D01*
X6900Y342785D01*
X7602Y342494D01*
Y334852D01*
X4238Y331488D01*
X-25400D01*
X-27351Y331100D01*
X-29005Y329995D01*
X-68375Y290625D01*
X-69480Y288971D01*
X-69868Y287020D01*
Y167212D01*
X-92282Y144798D01*
X-100047D01*
X-100128Y144995D01*
X-101811Y147189D01*
X-104005Y148872D01*
X-106559Y149930D01*
X-109300Y150291D01*
X-119300D01*
X-122041Y149930D01*
X-124595Y148872D01*
X-126789Y147189D01*
X-128472Y144995D01*
X-129530Y142441D01*
X-129891Y139700D01*
X-129530Y136959D01*
X-128472Y134405D01*
X-126789Y132211D01*
X-124595Y130528D01*
X-122041Y129470D01*
X-119300Y129109D01*
X-109300D01*
X-106559Y129470D01*
X-104005Y130528D01*
X-101811Y132211D01*
X-100128Y134405D01*
X-100047Y134602D01*
X-90170D01*
X-88219Y134990D01*
X-86565Y136095D01*
X-61165Y161495D01*
X-60060Y163149D01*
X-59672Y165100D01*
X-59672Y165100D01*
X-59672Y165100D01*
Y165100D01*
Y284908D01*
X-23288Y321292D01*
X6350D01*
X8301Y321680D01*
X9955Y322785D01*
X16305Y329135D01*
X17410Y330789D01*
X17474Y331113D01*
X17798Y332740D01*
Y342494D01*
X18500Y342785D01*
X20902Y344628D01*
X22745Y347030D01*
X23904Y349828D01*
X24299Y352830D01*
Y355830D01*
X23904Y358832D01*
X22745Y361630D01*
X20902Y364032D01*
X18500Y365875D01*
X15702Y367034D01*
X12700Y367429D01*
D02*
G37*
G36*
X195810Y144949D02*
X192810D01*
X189808Y144554D01*
X187010Y143395D01*
X184608Y141552D01*
X182765Y139150D01*
X181606Y136352D01*
X181211Y133350D01*
X181606Y130348D01*
X182765Y127550D01*
X184608Y125148D01*
X187010Y123305D01*
X189808Y122146D01*
X192810Y121751D01*
X195810D01*
X198812Y122146D01*
X201610Y123305D01*
X204012Y125148D01*
X205855Y127550D01*
X207014Y130348D01*
X207409Y133350D01*
X207014Y136352D01*
X205855Y139150D01*
X204012Y141552D01*
X201610Y143395D01*
X198812Y144554D01*
X195810Y144949D01*
D02*
G37*
G36*
X119300Y150291D02*
X109300D01*
X106559Y149930D01*
X104005Y148872D01*
X101811Y147189D01*
X100128Y144995D01*
X99070Y142441D01*
X98709Y139700D01*
X99070Y136959D01*
X100128Y134405D01*
X101811Y132211D01*
X104005Y130528D01*
X106559Y129470D01*
X109300Y129109D01*
X119300D01*
X122041Y129470D01*
X124595Y130528D01*
X126789Y132211D01*
X128472Y134405D01*
X129530Y136959D01*
X129891Y139700D01*
X129530Y142441D01*
X128472Y144995D01*
X126789Y147189D01*
X124595Y148872D01*
X122041Y149930D01*
X119300Y150291D01*
D02*
G37*
G36*
X326419Y156315D02*
X323417Y155920D01*
X320620Y154761D01*
X318021Y153261D01*
X315619Y151418D01*
X313776Y149016D01*
X312617Y146218D01*
X312222Y143216D01*
X312617Y140214D01*
X313776Y137416D01*
X315619Y135014D01*
X318021Y133171D01*
X320819Y132012D01*
X323821Y131617D01*
X326823Y132012D01*
X329621Y133171D01*
X332219Y134671D01*
X334621Y136514D01*
X336464Y138916D01*
X337623Y141714D01*
X338018Y144716D01*
X337623Y147718D01*
X336464Y150515D01*
X334621Y152918D01*
X332219Y154761D01*
X329421Y155920D01*
X326419Y156315D01*
D02*
G37*
%LPD*%
D11*
X238760Y237650D02*
D03*
Y257650D02*
D03*
X-278130Y-86200D02*
D03*
Y-66200D02*
D03*
X-300990Y-86200D02*
D03*
Y-66200D02*
D03*
D12*
X-114300Y139700D02*
X-90170D01*
X-64770Y165100D01*
Y287020D01*
X-25400Y326390D01*
X6350D01*
X12700Y332740D01*
Y354330D01*
X-114300Y88900D02*
X73660D01*
X86160Y76400D01*
X222857D01*
X312420Y165963D01*
X-128270Y-165100D02*
X-114300D01*
X-302260Y189637D02*
X-236627D01*
X-130810Y-190500D02*
X-114300D01*
X299720Y187960D02*
X312420Y200660D01*
X326390D01*
X354330Y172720D01*
Y132080D02*
Y172720D01*
X326390Y104140D02*
X354330Y132080D01*
X283210Y104140D02*
X326390D01*
X229870Y50800D02*
X283210Y104140D01*
X-114300Y63500D02*
X60960D01*
X73660Y50800D01*
X229870D01*
X114300Y241300D02*
X151130D01*
X170180Y260350D01*
X194310D01*
X236060D01*
X238760Y257650D01*
X-147320Y-146050D02*
X-128270Y-165100D01*
X-147320Y-146050D02*
Y100330D01*
X-236627Y189637D02*
X-147320Y100330D01*
X-130810Y38100D02*
X-114300D01*
X-138430Y30480D02*
X-130810Y38100D01*
X-138430Y3810D02*
Y30480D01*
Y3810D02*
X-134820Y200D01*
X-90370D01*
X-114300Y12700D02*
X-90170D01*
X74930Y-152400D02*
X299313D01*
X312420Y-165507D01*
X87630Y-177800D02*
X290016D01*
X299720Y-187504D01*
X22860Y-241300D02*
X114300D01*
X-154320Y-166990D02*
X-130810Y-190500D01*
X54610Y-132080D02*
X74930Y-152400D01*
X-90370Y200D02*
X-80010Y-10160D01*
X47610Y-137780D02*
X87630Y-177800D01*
X-80010Y-45720D02*
Y-10160D01*
Y-45720D02*
X-71120Y-54610D01*
X-73010Y-38750D02*
X-64770Y-46990D01*
X-73010Y-38750D02*
Y-4460D01*
X-90170Y12700D02*
X-73010Y-4460D01*
X-64770Y-46990D02*
X43180D01*
X54610Y-58420D01*
Y-132080D02*
Y-58420D01*
X-71120Y-54610D02*
X38100D01*
X47610Y-64120D01*
Y-137780D02*
Y-64120D01*
X-314960Y167640D02*
X-227330D01*
X-154320Y94630D01*
Y-166990D02*
Y94630D01*
D13*
X-27940Y-241300D02*
X-26510Y-242730D01*
Y-298450D02*
Y-271780D01*
Y-242730D01*
X-6510Y-245270D02*
X-2540Y-241300D01*
X-6510Y-298450D02*
Y-271780D01*
Y-245270D01*
X-250350Y-66200D02*
X-247650Y-63500D01*
X-300990Y-66200D02*
X-278130D01*
X-250350D01*
Y-86200D02*
X-247650Y-88900D01*
X-300990Y-86200D02*
X-278130D01*
X-250350D01*
D15*
X303530Y-63500D02*
D03*
X194310Y285750D02*
D03*
D16*
X328930Y-63500D02*
D03*
X303530Y-38100D02*
D03*
X328930D02*
D03*
X303530Y-12700D02*
D03*
X328930Y-12700D02*
D03*
X303530Y12700D02*
D03*
X328930D02*
D03*
X303530Y38100D02*
D03*
X328930Y38100D02*
D03*
X194310Y107950D02*
D03*
Y133350D02*
D03*
Y158750D02*
D03*
Y184150D02*
D03*
Y209550D02*
D03*
Y234950D02*
D03*
Y260350D02*
D03*
D17*
X22860Y-241300D02*
D03*
D18*
X-2540D02*
D03*
X-27940D02*
D03*
X-222250Y-63500D02*
D03*
X-247650Y-88900D02*
D03*
X-222250D02*
D03*
D19*
X287020Y209957D02*
D03*
X299720Y187960D02*
D03*
X312420Y165963D02*
D03*
X325120Y143966D02*
D03*
X-285750Y-209094D02*
D03*
X-298450Y-187097D02*
D03*
X-311150Y-165100D02*
D03*
X-323850Y-143103D02*
D03*
D20*
X-38100Y354330D02*
D03*
X-12700D02*
D03*
X12700D02*
D03*
X38100D02*
D03*
Y-355600D02*
D03*
X12700D02*
D03*
X-12700D02*
D03*
X-38100D02*
D03*
D21*
X-114300Y241300D02*
D03*
D22*
Y215900D02*
D03*
Y190500D02*
D03*
X-114300Y165100D02*
D03*
X-114300Y139700D02*
D03*
Y114300D02*
D03*
Y88900D02*
D03*
Y63500D02*
D03*
X-114300Y38100D02*
D03*
X-114300Y12700D02*
D03*
Y-12700D02*
D03*
Y-38100D02*
D03*
Y-63500D02*
D03*
X-114300Y-88900D02*
D03*
X-114300Y-114300D02*
D03*
Y-139700D02*
D03*
Y-165100D02*
D03*
Y-190500D02*
D03*
Y-215900D02*
D03*
Y-241300D02*
D03*
X114300Y241300D02*
D03*
X114300Y215900D02*
D03*
X114300Y190500D02*
D03*
X114300Y165100D02*
D03*
Y139700D02*
D03*
X114300Y114300D02*
D03*
X114300Y88900D02*
D03*
X114300Y63500D02*
D03*
X114300Y38100D02*
D03*
X114300Y12700D02*
D03*
Y-12700D02*
D03*
X114300Y-38100D02*
D03*
X114300Y-63500D02*
D03*
X114300Y-88900D02*
D03*
X114300Y-114300D02*
D03*
Y-139700D02*
D03*
X114300Y-165100D02*
D03*
X114300Y-190500D02*
D03*
X114300Y-215900D02*
D03*
X114300Y-241300D02*
D03*
D23*
X325120Y-143510D02*
D03*
X312420Y-165507D02*
D03*
X299720Y-187504D02*
D03*
X287020Y-209501D02*
D03*
X-327660Y145643D02*
D03*
X-314960Y167640D02*
D03*
X-302260Y189637D02*
D03*
X-289560Y211634D02*
D03*
D24*
X0Y-185000D02*
D03*
X-185000Y0D02*
D03*
X0Y185000D02*
D03*
X185000Y0D02*
D03*
X0D02*
D03*
D25*
X-247650Y-63500D02*
D03*
D26*
X-26510Y-298450D02*
D03*
X-6510D02*
D03*
X-26510Y-271780D02*
D03*
X-6510D02*
D03*
M02*
