M48
;Layer_Color=9474304
;FILE_FORMAT=4:4
METRIC,LZ
;TYPE=PLATED
T1F00S00C0.9000
T2F00S00C1.0000
%
T01
X0028702Y-00209501
X0029972Y-00187504
X0031242Y-00165507
X0032512Y-0014351
X0032893Y-000635
X0030353
X0030353Y-000381
X0032893
X0032893Y-000127
X0030353Y-000127
X0030353Y000127
X0032893
X001143
Y-000127
X001143Y-000381
X001143Y-000635
X001143Y-000889
X001143Y-001143
Y-001397
X001143Y-001651
X001143Y-001905
X001143Y-002159
X001143Y-002413
X0002286
X-0000254
X-0002794
X-001143
Y-002159
Y-001905
Y-001651
Y-001397
Y-001143
X-001143Y-000889
X-001143Y-000635
Y-000381
Y-000127
Y000127
X-000381Y-003556
X-000127
X000127
X000381
X-0028575Y-00209094
X-0029845Y-00187097
X-0031115Y-001651
X-0032385Y-00143103
X-0024765Y-000889
Y-000635
X-0022225
Y-000889
X-0032766Y00145643
X-0031496Y0016764
X-0030226Y00189637
X-0028956Y00211634
X-001143Y002159
Y002413
Y001905
X-001143Y001651
X-001143Y001397
Y001143
Y000889
Y000635
X-001143Y000381
X001143
X001143Y000635
X001143Y000889
X001143Y001143
X001143Y001397
Y001651
X001143Y001905
X001143Y002159
X001143Y002413
X0019431Y0023495
Y0020955
Y0018415
Y0015875
Y0013335
Y0010795
Y0026035
Y0028575
X000381Y0035433
X000127
X-000127
X-000381
X0028702Y00209957
X0029972Y0018796
X0031242Y00165963
X0032512Y00143966
X0032893Y000381
X0030353Y000381
T02
X0Y-00185
Y0
X-00185
X00185
X0Y00185
M30
